<svg width="56" height="56" viewBox="0 0 56 40" fill="none" xmlns="http://www.w3.org/2000/svg">
<path d="M9.1 5.6H4.9C3.73625 5.6 2.8 6.53625 2.8 7.7V16.8H0.7C0.315 16.8 0 17.115 0 17.5V21.7C0 22.085 0.315 22.4 0.7 22.4H2.8V31.5C2.8 32.6637 3.73625 33.6 4.9 33.6H9.1C10.2637 33.6 11.2 32.6637 11.2 31.5V7.7C11.2 6.53625 10.2637 5.6 9.1 5.6ZM55.3 16.8H53.2V7.7C53.2 6.53625 52.2637 5.6 51.1 5.6H46.9C45.7362 5.6 44.8 6.53625 44.8 7.7V31.5C44.8 32.6637 45.7362 33.6 46.9 33.6H51.1C52.2637 33.6 53.2 32.6637 53.2 31.5V22.4H55.3C55.685 22.4 56 22.085 56 21.7V17.5C56 17.115 55.685 16.8 55.3 16.8ZM39.9 0H35.7C34.5362 0 33.6 0.93625 33.6 2.1V16.8H22.4V2.1C22.4 0.93625 21.4637 0 20.3 0H16.1C14.9362 0 14 0.93625 14 2.1V37.1C14 38.2637 14.9362 39.2 16.1 39.2H20.3C21.4637 39.2 22.4 38.2637 22.4 37.1V22.4H33.6V37.1C33.6 38.2637 34.5362 39.2 35.7 39.2H39.9C41.0637 39.2 42 38.2637 42 37.1V2.1C42 0.93625 41.0637 0 39.9 0Z" fill="#00FF15"/>
</svg>