<svg width="28" height="28" viewBox="0 0 28 28" fill="none" xmlns="http://www.w3.org/2000/svg">
<rect width="28" height="28" fill="#1E1E1E"/>
<g clip-path="url(#clip0_17_4)">
<path d="M14.006 6.81749C10.1414 6.81749 7.02425 9.93468 7.02425 13.7993C7.02425 17.6638 10.1414 20.781 14.006 20.781C17.8706 20.781 20.9878 17.6638 20.9878 13.7993C20.9878 9.93468 17.8706 6.81749 14.006 6.81749ZM14.006 18.3383C11.5086 18.3383 9.46696 16.3027 9.46696 13.7993C9.46696 11.2958 11.5025 9.2602 14.006 9.2602C16.5095 9.2602 18.5451 11.2958 18.5451 13.7993C18.5451 16.3027 16.5034 18.3383 14.006 18.3383ZM22.9019 6.5319C22.9019 7.43728 22.1727 8.16037 21.2734 8.16037C20.368 8.16037 19.6449 7.43121 19.6449 6.5319C19.6449 5.6326 20.3741 4.90343 21.2734 4.90343C22.1727 4.90343 22.9019 5.6326 22.9019 6.5319ZM27.526 8.18468C27.4227 6.00326 26.9244 4.07096 25.3263 2.47895C23.7343 0.886936 21.802 0.388672 19.6206 0.279297C17.3723 0.151693 10.6336 0.151693 8.38536 0.279297C6.21002 0.382595 4.27772 0.880859 2.67963 2.47287C1.08154 4.06489 0.589355 5.99718 0.47998 8.1786C0.352376 10.4269 0.352376 17.1656 0.47998 19.4138C0.583279 21.5953 1.08154 23.5276 2.67963 25.1196C4.27772 26.7116 6.20394 27.2099 8.38536 27.3192C10.6336 27.4468 17.3723 27.4468 19.6206 27.3192C21.802 27.2159 23.7343 26.7177 25.3263 25.1196C26.9183 23.5276 27.4166 21.5953 27.526 19.4138C27.6536 17.1656 27.6536 10.4329 27.526 8.18468ZM24.6215 21.8262C24.1475 23.0171 23.23 23.9347 22.0329 24.4147C20.2404 25.1257 15.9869 24.9616 14.006 24.9616C12.0251 24.9616 7.76557 25.1196 5.97911 24.4147C4.78814 23.9408 3.87061 23.0232 3.39057 21.8262C2.67963 20.0336 2.8437 15.7802 2.8437 13.7993C2.8437 11.8184 2.68571 7.55881 3.39057 5.77235C3.86453 4.58138 4.78206 3.66385 5.97911 3.18381C7.77165 2.47287 12.0251 2.63694 14.006 2.63694C15.9869 2.63694 20.2465 2.47895 22.0329 3.18381C23.2239 3.65777 24.1414 4.5753 24.6215 5.77235C25.3324 7.56489 25.1683 11.8184 25.1683 13.7993C25.1683 15.7802 25.3324 20.0397 24.6215 21.8262Z" fill="white"/>
</g>
<defs>
<clipPath id="clip0_17_4">
<rect width="28" height="28" fill="white"/>
</clipPath>
</defs>
</svg>
