<svg width="28" height="28" viewBox="0 0 28 28" fill="none" xmlns="http://www.w3.org/2000/svg">
<rect width="28" height="28" fill="#1E1E1E"/>
<g clip-path="url(#clip0_17_4)">
<path d="M23.5336 4.15007C20.9876 1.59798 17.597 0.194336 13.9937 0.194336C6.55621 0.194336 0.504123 6.24642 0.504123 13.6839C0.504123 16.0598 1.12391 18.381 2.30273 20.4287L0.388672 27.4166L7.54058 25.539C9.50933 26.6145 11.7272 27.1796 13.9876 27.1796H13.9937C21.4251 27.1796 27.6109 21.1275 27.6109 13.69C27.6109 10.0867 26.0796 6.70215 23.5336 4.15007ZM13.9937 24.907C11.9763 24.907 10.0015 24.3662 8.2819 23.3454L7.87478 23.1023L3.63346 24.2143L4.76367 20.0763L4.49631 19.6509C3.37218 17.8645 2.78277 15.8046 2.78277 13.6839C2.78277 7.50423 7.81402 2.47298 13.9998 2.47298C16.9954 2.47298 19.8088 3.63965 21.9234 5.76031C24.038 7.88097 25.3383 10.6943 25.3322 13.69C25.3322 19.8758 20.1734 24.907 13.9937 24.907ZM20.143 16.5094C19.8088 16.3393 18.15 15.5251 17.8401 15.4157C17.5302 15.3002 17.3053 15.2456 17.0805 15.5858C16.8557 15.9261 16.2116 16.6796 16.0111 16.9105C15.8166 17.1353 15.6161 17.1657 15.2819 16.9956C13.301 16.0051 12.0007 15.2273 10.6942 12.9851C10.3479 12.3896 11.0406 12.4322 11.6847 11.144C11.7941 10.9192 11.7394 10.7247 11.6543 10.5546C11.5692 10.3844 10.8947 8.72559 10.6152 8.05111C10.3418 7.39486 10.0623 7.486 9.85569 7.47385C9.66124 7.4617 9.43642 7.4617 9.21159 7.4617C8.98676 7.4617 8.62218 7.54677 8.31228 7.88097C8.00239 8.22125 7.13346 9.03548 7.13346 10.6943C7.13346 12.3532 8.34267 13.9574 8.50673 14.1822C8.67687 14.407 10.8826 17.8098 14.2671 19.2742C16.406 20.1978 17.2446 20.2768 18.314 20.1188C18.9642 20.0216 20.3071 19.3046 20.5866 18.5146C20.8661 17.7247 20.8661 17.0502 20.781 16.9105C20.702 16.7586 20.4772 16.6735 20.143 16.5094Z" fill="white"/>
</g>
<defs>
<clipPath id="clip0_17_4">
<rect width="28" height="28" fill="white"/>
</clipPath>
</defs>
</svg>
