<svg width="49" height="49" viewBox="0 0 49 49" fill="none" xmlns="http://www.w3.org/2000/svg">
<rect width="49" height="49" fill="#1E1E1E"/>
<path d="M8.6975 38.2813C11.27 36.4846 13.8221 35.1065 16.3538 34.1469C18.8854 33.1873 21.6008 32.7075 24.5 32.7075C27.3992 32.7075 30.1248 33.1873 32.6769 34.1469C35.229 35.1065 37.7913 36.4846 40.3638 38.2813C42.1604 36.0763 43.4365 33.8508 44.1919 31.605C44.9473 29.3592 45.325 26.9908 45.325 24.5C45.325 18.5792 43.3344 13.6281 39.3531 9.64688C35.3719 5.66563 30.4208 3.675 24.5 3.675C18.5792 3.675 13.6281 5.66563 9.64688 9.64688C5.66563 13.6281 3.675 18.5792 3.675 24.5C3.675 26.9908 4.06292 29.3592 4.83875 31.605C5.61458 33.8508 6.90083 36.0763 8.6975 38.2813ZM18.5281 23.9181C16.9152 22.3052 16.1088 20.3146 16.1088 17.9463C16.1088 15.5779 16.9152 13.5873 18.5281 11.9744C20.141 10.3615 22.1317 9.555 24.5 9.555C26.8683 9.555 28.859 10.3615 30.4719 11.9744C32.0848 13.5873 32.8913 15.5779 32.8913 17.9463C32.8913 20.3146 32.0848 22.3052 30.4719 23.9181C28.859 25.531 26.8683 26.3375 24.5 26.3375C22.1317 26.3375 20.141 25.531 18.5281 23.9181ZM24.5 49C21.1517 49 17.9871 48.3569 15.0063 47.0706C12.0254 45.7844 9.42229 44.0285 7.19688 41.8031C4.97146 39.5777 3.21563 36.9746 1.92938 33.9938C0.643125 31.0129 0 27.8483 0 24.5C0 21.1108 0.643125 17.936 1.92938 14.9756C3.21563 12.0152 4.97146 9.42229 7.19688 7.19688C9.42229 4.97146 12.0254 3.21563 15.0063 1.92938C17.9871 0.643125 21.1517 0 24.5 0C27.8892 0 31.064 0.643125 34.0244 1.92938C36.9848 3.21563 39.5777 4.97146 41.8031 7.19688C44.0285 9.42229 45.7844 12.0152 47.0706 14.9756C48.3569 17.936 49 21.1108 49 24.5C49 27.8483 48.3569 31.0129 47.0706 33.9938C45.7844 36.9746 44.0285 39.5777 41.8031 41.8031C39.5777 44.0285 36.9848 45.7844 34.0244 47.0706C31.064 48.3569 27.8892 49 24.5 49ZM31.0844 44.345C33.2281 43.6917 35.3413 42.5483 37.4238 40.915C35.3413 39.445 33.2179 38.3221 31.0538 37.5463C28.8896 36.7704 26.705 36.3825 24.5 36.3825C22.295 36.3825 20.1104 36.7704 17.9463 37.5463C15.7821 38.3221 13.6588 39.445 11.5762 40.915C13.6588 42.5483 15.7719 43.6917 17.9156 44.345C20.0594 44.9983 22.2542 45.325 24.5 45.325C26.7458 45.325 28.9406 44.9983 31.0844 44.345ZM27.8994 21.3456C28.7773 20.4677 29.2163 19.3346 29.2163 17.9463C29.2163 16.5579 28.7773 15.4248 27.8994 14.5469C27.0215 13.669 25.8883 13.23 24.5 13.23C23.1117 13.23 21.9785 13.669 21.1006 14.5469C20.2227 15.4248 19.7837 16.5579 19.7837 17.9463C19.7837 19.3346 20.2227 20.4677 21.1006 21.3456C21.9785 22.2235 23.1117 22.6625 24.5 22.6625C25.8883 22.6625 27.0215 22.2235 27.8994 21.3456Z" fill="black"/>
</svg>
