<svg width="56" height="56" viewBox="0 0 56 56" fill="none" xmlns="http://www.w3.org/2000/svg">
<rect width="56" height="56" fill="#1E1E1E"/>
<path d="M9.1 14.0004H4.9C3.73625 14.0004 2.8 14.9366 2.8 16.1004V25.2004H0.7C0.315 25.2004 0 25.5154 0 25.9004V30.1004C0 30.4854 0.315 30.8004 0.7 30.8004H2.8V39.9004C2.8 41.0641 3.73625 42.0004 4.9 42.0004H9.1C10.2637 42.0004 11.2 41.0641 11.2 39.9004V16.1004C11.2 14.9366 10.2637 14.0004 9.1 14.0004ZM55.3 25.2004H53.2V16.1004C53.2 14.9366 52.2637 14.0004 51.1 14.0004H46.9C45.7362 14.0004 44.8 14.9366 44.8 16.1004V39.9004C44.8 41.0641 45.7362 42.0004 46.9 42.0004H51.1C52.2637 42.0004 53.2 41.0641 53.2 39.9004V30.8004H55.3C55.685 30.8004 56 30.4854 56 30.1004V25.9004C56 25.5154 55.685 25.2004 55.3 25.2004ZM39.9 8.40039H35.7C34.5362 8.40039 33.6 9.33664 33.6 10.5004V25.2004H22.4V10.5004C22.4 9.33664 21.4637 8.40039 20.3 8.40039H16.1C14.9362 8.40039 14 9.33664 14 10.5004V45.5004C14 46.6641 14.9362 47.6004 16.1 47.6004H20.3C21.4637 47.6004 22.4 46.6641 22.4 45.5004V30.8004H33.6V45.5004C33.6 46.6641 34.5362 47.6004 35.7 47.6004H39.9C41.0637 47.6004 42 46.6641 42 45.5004V10.5004C42 9.33664 41.0637 8.40039 39.9 8.40039Z" fill="white"/>
</svg>
