<svg width="32" height="32" viewBox="0 0 32 32" fill="none" xmlns="http://www.w3.org/2000/svg">
<rect width="32" height="32" fill="#1E1E1E"/>
<path d="M30.3386 11.2673L20.6526 1.58139L21.333 0.900977C21.9468 0.287268 22.7072 -0.0129157 23.6144 0.000425792C24.5217 0.0137673 25.2821 0.327292 25.8958 0.941001L31.059 6.10416C31.6727 6.71787 31.9796 7.47166 31.9796 8.36554C31.9796 9.25942 31.6727 10.0132 31.059 10.6269L30.3386 11.2673ZM10.6065 31.0794C9.99278 31.6931 9.23899 32 8.3451 32C7.45122 32 6.69743 31.6931 6.08372 31.0794L0.920563 25.9163C0.306854 25.3026 0 24.5488 0 23.6549C0 22.761 0.306854 22.0072 0.920563 21.3935L1.56095 20.7531L11.2469 30.439L10.6065 31.0794ZM16.41 29.9588C16.0898 30.2789 15.7163 30.439 15.2894 30.439C14.8624 30.439 14.4889 30.2789 14.1687 29.9588L2.04125 17.8313C1.72105 17.5111 1.56095 17.1376 1.56095 16.7106C1.56095 16.2837 1.72105 15.9102 2.04125 15.59L4.32264 13.2685C4.64284 12.9483 5.02307 12.7882 5.46334 12.7882C5.90361 12.7882 6.28384 12.9483 6.60404 13.2685L9.12558 15.7901L15.7696 9.14602L13.2481 6.62448C12.9279 6.30428 12.7678 5.93072 12.7678 5.50379C12.7678 5.07686 12.9279 4.7033 13.2481 4.38311L15.5295 2.06169C15.8497 1.74149 16.2299 1.58139 16.6702 1.58139C17.1105 1.58139 17.4907 1.74149 17.8109 2.06169L29.9383 14.1891C30.2585 14.5093 30.4186 14.8895 30.4186 15.3298C30.4186 15.7701 30.2585 16.1503 29.9383 16.4705L27.6169 18.7519C27.2967 19.0721 26.9231 19.2322 26.4962 19.2322C26.0693 19.2322 25.6957 19.0721 25.3755 18.7519L22.854 16.2304L16.2099 22.8744L18.7315 25.396C19.0517 25.7162 19.2118 26.0964 19.2118 26.5367C19.2118 26.9769 19.0517 27.3572 18.7315 27.6774L16.41 29.9588Z" fill="black"/>
</svg>
