<svg width="32" height="32" viewBox="0 0 32 32" fill="none" xmlns="http://www.w3.org/2000/svg">
<rect width="32" height="32" fill="#1E1E1E"/>
<path d="M23 0H9C7.34375 0 6 1.34375 6 3V29C6 30.6562 7.34375 32 9 32H23C24.6562 32 26 30.6562 26 29V3C26 1.34375 24.6562 0 23 0ZM16 30C14.8937 30 14 29.1063 14 28C14 26.8937 14.8937 26 16 26C17.1063 26 18 26.8937 18 28C18 29.1063 17.1063 30 16 30ZM23 23.25C23 23.6625 22.6625 24 22.25 24H9.75C9.3375 24 9 23.6625 9 23.25V3.75C9 3.3375 9.3375 3 9.75 3H22.25C22.6625 3 23 3.3375 23 3.75V23.25Z" fill="black"/>
</svg>
