<svg width="27" height="24" viewBox="0 0 27 24" fill="none" xmlns="http://www.w3.org/2000/svg">
<rect width="27" height="24" fill="#1E1E1E"/>
<path d="M24.4688 12H20.25V8.57143C20.25 6.68036 21.7635 5.14286 23.625 5.14286H24.0469C24.7482 5.14286 25.3125 4.56964 25.3125 3.85714V1.28571C25.3125 0.573214 24.7482 0 24.0469 0H23.625C18.9633 0 15.1875 3.83571 15.1875 8.57143V21.4286C15.1875 22.8482 16.3213 24 17.7188 24H24.4688C25.8662 24 27 22.8482 27 21.4286V14.5714C27 13.1518 25.8662 12 24.4688 12ZM9.28125 12H5.0625V8.57143C5.0625 6.68036 6.57598 5.14286 8.4375 5.14286H8.85938C9.56074 5.14286 10.125 4.56964 10.125 3.85714V1.28571C10.125 0.573214 9.56074 0 8.85938 0H8.4375C3.77578 0 0 3.83571 0 8.57143V21.4286C0 22.8482 1.13379 24 2.53125 24H9.28125C10.6787 24 11.8125 22.8482 11.8125 21.4286V14.5714C11.8125 13.1518 10.6787 12 9.28125 12Z" fill="url(#paint0_linear_17_4)"/>
<defs>
<linearGradient id="paint0_linear_17_4" x1="13.5" y1="0" x2="13.5" y2="24" gradientUnits="userSpaceOnUse">
<stop stop-color="#FFBF00"/>
<stop offset="1" stop-color="#EAFF00"/>
</linearGradient>
</defs>
</svg>
